<?xml version="1.0" encoding="utf-8"?>
<?xml-stylesheet type="text/xsl" href="rss1.xsl"?>
<rss version="2.0" xmlns:atom="http://www.w3.org/2005/Atom" xmlns:content="http://purl.org/rss/1.0/modules/content/" xmlns:dc="http://purl.org/dc/elements/1.1/" xmlns:media="http://search.yahoo.com/mrss/">
<channel>
 <title>Getty</title>
 <link>http://www.gettyimg.com/</link>
 <atom:link href="http://www.gettyimg.com/" rel="self" type="application/rss+xml" />

 
                <item>
                <title><![CDATA[【BLU-RAY】BLU-RAY - Coldplay - The Scientist (Live 2012) 1080p Blu-Ray AVC PCM2.0-SZYMIX]]></title>
                <link><![CDATA[https://sharemania.us/threads/coldplay-the-scientist-live-2012-1080p-blu-ray-avc-pcm2-0-szymix.237464/]]></link>
                <description><![CDATA[<article>
<blockquote class="messageText SelectQuoteContainer ugc baseHtml">
<img src="https://is5-ssl.mzstatic.com/image/thumb/Video4/v4/e5/0c/1c/e50c1cf1-3218-7230-e6d8-73ad5feb9cfb/5099941647257.pstr.jpg/100000x100000-999.jpg" class="bbCodeImage LbImage" alt="[​IMG]" data-url="https://is5-ssl.mzstatic.com/image/thumb/Video4/v4/e5/0c/1c/e50c1cf1-3218-7230-e6d8-73ad5feb9cfb/5099941647257.pstr.jpg/100000x100000-999.jpg" style=""> <br>
<img src="https://i.postimg.cc/kgNMLty4/Coldplay-The-Scientist-Live-2012-1080p-Blu-Ray-AVC-PCM2-0-SZYMIX-mkv.jpg" class="bbCodeImage LbImage" alt="[​IMG]" data-url="https://i.postimg.cc/kgNMLty4/Coldplay-The-Scientist-Live-2012-1080p-Blu-Ray-AVC-PCM2-0-SZYMIX-mkv.jpg" style=""> <br>
<div class="ToggleTriggerAnchor bbCodeSpoilerContainer">
<button type="button" class="button bbCodeSpoilerButton ToggleTrigger Tooltip JsOnly" data-target="> .SpoilerTarget"><span>Spoiler: <span class="SpoilerTitle">Media Info</span></span></button>
<div class="SpoilerTarget bbCodeSpoilerText">General<br>
Unique ID : 120913876115144362862259937183031854351 (0x5AF72A5C416E042CC995A2FBDB7F850F)<br>
Complete name : Coldplay - The Scientist (Live 2012) 1080p Blu-Ray AVC PCM2.0-SZYMIX.mkv<br>
Format : Matroska<br>
Format version : Version 2<br>
File size : 1.43 GiB<br>
Duration : 5 min 55 s<br>
Overall bit rate mode : Variable<br>
Overall bit rate : 34.7 Mb/s<br>
Frame rate : 29.970 FPS<br>
Encoded date : 2024-02-10 22:01:57 UTC<br>
Writing application : MakeMKV v1.17.6 win(x64-release)<br>
Writing library : libmakemkv v1.17.6 (1.3.10/1.5.2) win(x64-release)<br>
<br>
Video<br>
ID : 1<br>
ID in the original source medium : 4113 (0x1011)<br>
Format : AVC<br>
Format/Info : Advanced Video Codec<br>
Format profile : High@L4.1<br>
Format settings : CABAC / 4 Ref Frames<br>
Format settings, CABAC : Yes<br>
Format settings, Reference frames : 4 frames<br>
Format settings, Slice count : 4 slices per frame<br>
Codec ID : V_MPEG4/ISO/AVC<br>
Duration : 5 min 55 s<br>
Bit rate mode : Variable<br>
Bit rate : 32.3 Mb/s<br>
Maximum bit rate : 40.0 Mb/s<br>
Width : 1 920 pixels<br>
Height : 1 080 pixels<br>
Display aspect ratio : 16:9<br>
Frame rate mode : Constant<br>
Frame rate : 29.970 (30000/1001) FPS<br>
Standard : NTSC<br>
Color space : YUV<br>
Chroma subsampling : 4:2:0<br>
Bit depth : 8 bits<br>
Scan type : MBAFF<br>
Scan type, store method : Interleaved fields<br>
Scan order : Top Field First<br>
Bits/(Pixel*Frame) : 0.520<br>
Stream size : 1.34 GiB (93%)<br>
Language : English<br>
Default : No<br>
Forced : No<br>
Color range : Limited<br>
Color primaries : BT.709<br>
Transfer characteristics : BT.709<br>
Matrix coefficients : BT.709<br>
Original source medium : Blu-ray<br>
<br>
Audio<br>
ID : 2<br>
ID in the original source medium : 4352 (0x1100)<br>
Format : PCM<br>
Format settings : Little / Signed<br>
Codec ID : A_PCM/INT/LIT<br>
Duration : 5 min 55 s<br>
Bit rate mode : Constant<br>
Bit rate : 2 304 kb/s<br>
Channel(s) : 2 channels<br>
Sampling rate : 48.0 kHz<br>
Frame rate : 30.001 FPS (1600 SPF)<br>
Bit depth : 24 bits<br>
Stream size : 97.5 MiB (7%)<br>
Title : Stereo<br>
Language : English<br>
Default : Yes<br>
Forced : No<br>
Original source medium : Blu-ray<br>
<br>
Text #1<br>
ID : 3<br>
ID in the original source medium : 4608 (0x1200)<br>
Format : PGS<br>
Codec ID : S_HDMV/PGS<br>
Codec ID/Info : Picture based subtitle format used on BDs/HD-DVDs<br>
Duration : 350 ms<br>
Bit rate : 34.1 kb/s<br>
Frame rate : 5.709 FPS<br>
Count of elements : 2<br>
Stream size : 1.46 KiB (0%)<br>
Language : English<br>
Default : No<br>
Forced : No<br>
Original source medium : Blu-ray<br>
<br>
Text #2<br>
ID : 5<br>
ID in the original source medium : 4609 (0x1201)<br>
Format : PGS<br>
Codec ID : S_HDMV/PGS<br>
Codec ID/Info : Picture based subtitle format used on BDs/HD-DVDs<br>
Duration : 5 min 48 s<br>
Bit rate : 16.4 kb/s<br>
Frame rate : 0.230 FPS<br>
Count of elements : 80<br>
Stream size : 699 KiB (0%)<br>
Language : English<br>
Default : No<br>
Forced : No<br>
Original source medium : Blu-ray<br>
<br>
Text #3<br>
ID : 7<br>
ID in the original source medium : 4610 (0x1202)<br>
Format : PGS<br>
Codec ID : S_HDMV/PGS<br>
Codec ID/Info : Picture based subtitle format used on BDs/HD-DVDs<br>
Duration : 350 ms<br>
Bit rate : 34.1 kb/s<br>
Frame rate : 5.709 FPS<br>
Count of elements : 2<br>
Stream size : 1.46 KiB (0%)<br>
Language : French<br>
Default : No<br>
Forced : No<br>
Original source medium : Blu-ray<br>
<br>
Text #4<br>
ID : 9<br>
ID in the original source medium : 4611 (0x1203)<br>
Format : PGS<br>
Codec ID : S_HDMV/PGS<br>
Codec ID/Info : Picture based subtitle format used on BDs/HD-DVDs<br>
Duration : 350 ms<br>
Bit rate : 34.1 kb/s<br>
Frame rate : 5.709 FPS<br>
Count of elements : 2<br>
Stream size : 1.46 KiB (0%)<br>
Language : German<br>
Default : No<br>
Forced : No<br>
Original source medium : Blu-ray<br>
<br>
Text #5<br>
ID : 11<br>
ID in the original source medium : 4612 (0x1204)<br>
Format : PGS<br>
Codec ID : S_HDMV/PGS<br>
Codec ID/Info : Picture based subtitle format used on BDs/HD-DVDs<br>
Duration : 350 ms<br>
Bit rate : 34.1 kb/s<br>
Frame rate : 5.709 FPS<br>
Count of elements : 2<br>
Stream size : 1.46 KiB (0%)<br>
Language : Spanish<br>
Default : No<br>
Forced : No<br>
Original source medium : Blu-ray<br>
<br>
Text #6<br>
ID : 13<br>
ID in the original source medium : 4613 (0x1205)<br>
Format : PGS<br>
Codec ID : S_HDMV/PGS<br>
Codec ID/Info : Picture based subtitle format used on BDs/HD-DVDs<br>
Duration : 350 ms<br>
Bit rate : 34.1 kb/s<br>
Frame rate : 5.709 FPS<br>
Count of elements : 2<br>
Stream size : 1.46 KiB (0%)<br>
Language : Italian<br>
Default : No<br>
Forced : No<br>
Original source medium : Blu-ray<br>
<br>
Text #7<br>
ID : 15<br>
ID in the original source medium : 4614 (0x1206)<br>
Format : PGS<br>
Codec ID : S_HDMV/PGS<br>
Codec ID/Info : Picture based subtitle format used on BDs/HD-DVDs<br>
Duration : 350 ms<br>
Bit rate : 34.1 kb/s<br>
Frame rate : 5.709 FPS<br>
Count of elements : 2<br>
Stream size : 1.46 KiB (0%)<br>
Language : Portuguese<br>
Default : No<br>
Forced : No<br>
Original source medium : Blu-ray</div>
</div>Ripped by me <img src="styles/default/xenforo/smilies/big_smile-48.png" class="mceSmilie" alt=":)" title="Smile    :)"><br>
<br>
<div class="bbCodeBlock bbCodeVfcHH HiddenContent">
<div class="attribution type">Hidden Content:</div>
<blockquote>You must either reply or click 'Like' to see the hidden information contained here.</blockquote>
</div>
<div class="messageTextEndMarker">&nbsp;</div>
</blockquote>
</article>]]></description>
                <author><![CDATA[szymek04sawicki]]></author>
                </item>

                </channel></rss>